<svg width="23" height="21" viewBox="0 0 23 21" fill="none" xmlns="http://www.w3.org/2000/svg">
<path fill-rule="evenodd" clip-rule="evenodd" d="M22.9541 16.7754C22.9541 19.1387 21.6865 20.417 19.291 20.417H4.40234C2.01758 20.417 0.739258 19.1494 0.739258 16.7754V3.73438C0.739258 1.37109 2.01758 0.103516 4.40234 0.103516H19.291C21.6865 0.103516 22.9541 1.37109 22.9541 3.73438V16.7754ZM4.50977 17.957H19.1836C20.0322 17.957 20.4941 17.5273 20.4941 16.6357V6.9248C20.4941 6.02246 20.0322 5.60352 19.1836 5.60352H4.50977C3.65039 5.60352 3.19922 6.02246 3.19922 6.9248V16.6357C3.19922 17.5273 3.65039 17.957 4.50977 17.957Z" fill="#4B5664"/>
</svg>
