<svg width="22" height="22" viewBox="0 0 22 22" fill="none" xmlns="http://www.w3.org/2000/svg">
<path d="M12.6133 21.0078L14.8789 10.2656L15.2695 12.2285C15.377 12.7754 15.709 13.0488 16.2754 13.0488H20.084C20.5918 13.0488 20.9922 12.6582 20.9922 12.1699C20.9922 11.6426 20.6016 11.2617 20.084 11.2617H16.7637L15.6895 6.43748C15.4844 5.55858 14.1562 5.56834 13.9609 6.47655L11.7344 16.418L9.35156 1.84764C9.20508 0.949202 7.88672 0.929671 7.68164 1.83787L5.65039 11.2617H1.90039C1.39258 11.2617 0.992188 11.6621 0.992188 12.1699C0.992188 12.6582 1.39258 13.0488 1.90039 13.0488H6.24609C6.7832 13.0488 7.125 12.8047 7.23242 12.3164L8.48242 6.6035L10.8652 21.0078C11.0215 21.9258 12.4277 21.9258 12.6133 21.0078Z" fill="white" stroke="white" stroke-width="0.5"/>
</svg>
