<svg width="24" height="22" viewBox="0 0 24 22" fill="none" xmlns="http://www.w3.org/2000/svg">
<path d="M4.72266 21.6914C5.92383 21.6914 8.7168 20.4805 10.5723 19.1719C10.7773 19.0352 10.9336 18.9863 11.1191 18.9863C11.2363 18.9961 11.3535 18.9961 11.4414 18.9961C18.4922 18.9961 23.8047 15.2656 23.8047 9.69922C23.8047 4.54297 18.6777 0.392578 12.2715 0.392578C5.875 0.392578 0.748047 4.54297 0.748047 9.69922C0.748047 12.8438 2.61328 15.7148 5.86523 17.4824C6.08008 17.5996 6.12891 17.7461 6.02148 17.9414C5.43555 18.9277 4.50781 19.9824 4.11719 20.4805C3.63867 21.0859 3.91211 21.6914 4.72266 21.6914Z" fill="white"/>
</svg>
