<svg width="12" height="16" viewBox="0 0 12 16" fill="none" xmlns="http://www.w3.org/2000/svg">
<path d="M9.89844 10.2246V8.74023H4.33203C4.30273 8.48633 4.29297 8.23242 4.29297 7.95898C4.29297 7.69531 4.30273 7.43164 4.33203 7.1875H9.89844V5.70312H4.68359C5.40625 3.86719 7.06641 2.88086 9.16602 2.88086C9.86914 2.88086 10.6602 2.94922 11.1094 3.05664V0.878906C10.6797 0.742188 9.82031 0.654297 9.13672 0.654297C5.5918 0.654297 2.85742 2.42188 2.01758 5.70312H0.103516V7.1875H1.7832C1.76367 7.44141 1.75391 7.69531 1.75391 7.95898C1.75391 8.22266 1.76367 8.48633 1.7832 8.74023H0.103516V10.2246H2.02734C2.86719 13.4863 5.60156 15.2539 9.13672 15.2539C9.87891 15.2539 10.6699 15.1953 11.1387 15.0781V12.8809C10.7383 12.9883 9.89844 13.0371 9.13672 13.0371C7.05664 13.0371 5.40625 12.0605 4.68359 10.2246H9.89844Z" fill="#4A5563"/>
</svg>
