<svg width="27" height="20" viewBox="0 0 27 20" fill="none" xmlns="http://www.w3.org/2000/svg">
<path fill-rule="evenodd" clip-rule="evenodd" d="M26.0425 16.2368C26.0425 18.6289 24.7397 19.9316 22.3252 19.9316H4.43506C2.02051 19.9316 0.706543 18.6289 0.706543 16.2368V10.1611C0.706543 8.68994 0.908691 8.07227 1.57129 7.20752L4.80566 2.99609C6.15332 1.2666 6.82715 0.75 8.79248 0.75H17.9565C19.9331 0.75 20.5957 1.2666 21.9434 2.99609L25.1777 7.20752C25.8628 8.06104 26.0425 8.68994 26.0425 10.1611V16.2368ZM10.7466 10.3633C10.7466 11.7334 11.7461 12.8789 13.3745 12.8789C15.0029 12.8789 16.0137 11.7334 16.0137 10.3633V10.2061C16.0137 9.71191 16.3057 9.229 16.9346 9.229H22.8306C23.2573 9.229 23.3359 8.86963 23.1113 8.57764L19.3379 3.64746C18.9336 3.11963 18.4619 2.89502 17.833 2.89502H8.92725C8.28711 2.89502 7.81543 3.11963 7.42236 3.64746L3.6377 8.57764C3.42432 8.86963 3.4917 9.229 3.91846 9.229H9.81445C10.4434 9.229 10.7466 9.71191 10.7466 10.2061V10.3633Z" fill="white"/>
</svg>
