<svg width="16" height="4" viewBox="0 0 16 4" fill="none" xmlns="http://www.w3.org/2000/svg">
<path fill-rule="evenodd" clip-rule="evenodd" d="M0 1.875C0 0.839466 0.839466 0 1.875 0C2.91053 0 3.75 0.839466 3.75 1.875C3.75 2.91053 2.91053 3.75 1.875 3.75C0.839466 3.75 0 2.91053 0 1.875ZM8 0C6.96447 0 6.125 0.839466 6.125 1.875C6.125 2.91053 6.96447 3.75 8 3.75C9.03553 3.75 9.875 2.91053 9.875 1.875C9.875 0.839466 9.03553 0 8 0ZM14.125 0C13.0895 0 12.25 0.839466 12.25 1.875C12.25 2.91053 13.0895 3.75 14.125 3.75C15.1605 3.75 16 2.91053 16 1.875C16 0.839466 15.1605 0 14.125 0Z" fill="#338BFF"/>
</svg>
